# xmcd
#
# Track frame offsets: 
#        150
#        10896
#        27656
#        43922
#        52124
#        58211
#        77338
#        90635
#        103525
#        114739
#        127808
#        140862
#        156281
#        170433
#        185445
#        199358
#        214753
#        228556
#        269209
#        297002
#        319879
#
# Disc length: 4561 seconds
#
# Revision: 0
# Processed by: cddbd v1.5.2PL0 Copyright (c) Steve Scherf et al.
# Submitted via: ExactAudioCopy v0.99pb4
#
DISCID=4311cf15
DTITLE=Various Artist - Let it Rot
DYEAR=1998
DGENRE=Ambient
TTITLE0=Paul Westerberg - John, I'm Only Dancing
TTITLE1=Paul Westerberg - Left of the Dial
TTITLE2=Paul Westerberg - Sadly Beautful
TTITLE3=Paul Westerberg - I'm in Trouble
TTITLE4=Paul Westerberg - Customer
TTITLE5=Paul Westerberg - Silver Naked Ladies
TTITLE6=Static Taxi - Take City
TTITLE7=Static Taxi - Race 4 Ur Life
TTITLE8=Static Taxi - Airplay
TTITLE9=Static Taxi - Upstairs
TTITLE10=Static Taxi - Summer (outro)
TTITLE11=Chris Mars - Dawn, Dawn
TTITLE12=Tommy Stinson - Hate it
TTITLE13=Bash and Pop - Situation
TTITLE14=Bash and Pop - Makin' Me Sick
TTITLE15=Perfect - Yap Yap
TTITLE16=Tommy Stinson - Hate it (live)
TTITLE17=Paul Westerberg - MamaDaddyDid
TTITLE18=Paul Westerberg - Love Untold
TTITLE19=Paul Westerberg - Skyway
TTITLE20=Data
EXTD=
EXTT0=
EXTT1=
EXTT2=
EXTT3=
EXTT4=
EXTT5=
EXTT6=
EXTT7=
EXTT8=
EXTT9=
EXTT10=
EXTT11=
EXTT12=
EXTT13=
EXTT14=
EXTT15=
EXTT16=
EXTT17=
EXTT18=
EXTT19=
EXTT20=
PLAYORDER=
